<svg width="11" height="8" viewBox="0 0 11 8" fill="none" xmlns="http://www.w3.org/2000/svg">
<path d="M2.92 7.08C2.28667 7.08 1.79333 6.92 1.44 6.6C1.08667 6.27333 0.91 5.79 0.91 5.15V0.43H2.47V5.13C2.47 5.35667 2.53 5.53333 2.65 5.66C2.77 5.78 2.93333 5.84 3.14 5.84C3.38667 5.84 3.59667 5.77333 3.77 5.64L4.19 6.74C4.03 6.85333 3.83667 6.94 3.61 7C3.39 7.05333 3.16 7.08 2.92 7.08ZM0.08 2.94V1.74H3.81V2.94H0.08ZM6.6757 3.15H10.0357V4.45H6.6757V3.15ZM6.7957 7H5.1757V-4.76837e-07H10.4657V1.3H6.7957V7Z" fill="black"/>
</svg>
